<svg width="36" height="32" viewBox="0 0 36 32" fill="none" xmlns="http://www.w3.org/2000/svg">
<rect width="36" height="32" rx="8" fill="#208D26"/>
<path d="M13 26V22H6L9.85 16H8L15 6L18 10.3L21 6L28 16H26.15L30 22H23V26H19V22H17V26H13ZM22.725 20H26.35L22.475 14H24.15L21 9.5L19.225 12.025L22 16H20.15L22.725 20ZM9.65 20H20.35L16.475 14H18.15L15 9.5L11.85 14H13.525L9.65 20ZM9.65 20H13.525H11.85H15H18.15H16.475H20.35H9.65ZM22.725 20H20.15H22H19.225H21H24.15H22.475H26.35H22.725ZM19 22H23H19Z" fill="white"/>
</svg>
